# Blender v2.76 (sub 0) OBJ File: ''
# www.blender.org
mtllib forme_archive.mtl
o Cube
v 1.000000 1.050390 0.626382
v 1.000000 1.050390 0.794306
v -0.277925 1.059610 0.785085
v -0.277925 1.059610 0.635602
v 1.000000 2.591758 0.626382
v 1.000000 2.591758 0.794307
v -0.277926 2.582538 0.785085
v -0.277925 2.582538 0.635602
v 0.620740 2.441813 0.397067
v 0.620739 1.200335 0.397066
v 0.101336 1.200335 0.397066
v 0.101335 2.441813 0.397066
v 0.630739 1.190335 0.397066
v 0.630740 2.451813 0.397067
v 0.091335 2.451813 0.397066
v 0.091336 1.190335 0.397066
v 0.620740 1.200335 0.119681
v 0.620740 2.441813 0.119682
v 0.101336 2.441813 0.119681
v 0.101336 1.200335 0.119681
v -0.119064 0.728630 0.864760
v -0.119063 0.728630 0.555928
v -0.049780 2.980131 0.795476
v -0.049780 2.980131 0.625212
v -0.516534 1.059610 0.785085
v -0.516534 1.059610 0.635602
v -0.516534 2.582538 0.785085
v -0.516534 2.582538 0.635602
v 0.595837 1.225237 1.023622
v 0.126237 1.225237 1.023622
v 0.595837 2.416911 1.023622
v 0.126237 2.416911 1.023621
v 1.000000 0.821074 1.023622
v -0.277925 0.821074 1.023622
v 0.999999 2.821074 1.023622
v -0.277926 2.821074 1.023621
v 0.685928 1.135146 1.023622
v 0.036146 1.135146 1.023622
v 0.685928 2.507002 1.023622
v 0.036146 2.507002 1.023621
v 0.595837 1.225237 1.357939
v 0.126237 1.225237 1.357939
v 0.595837 2.416911 1.357939
v 0.126237 2.416911 1.357939
v 0.841138 0.728630 0.555928
v 0.841138 0.728630 0.864760
v 0.771855 2.980131 0.625212
v 0.771854 2.980131 0.795477
v 1.198863 1.050390 0.626382
v 1.198864 1.050390 0.794306
v 1.198864 2.591758 0.626383
v 1.198863 2.591758 0.794307
v 1.000000 2.821074 0.397067
v 0.999999 2.821074 1.023622
v -0.277925 2.821074 0.397066
v -0.277926 2.821074 1.023621
v 1.000000 0.821074 0.397066
v 1.000000 0.821074 1.023622
v -0.277925 0.821074 0.397066
v -0.277925 0.821074 1.023622
vn 0.000000 -1.000000 -0.000000
vn 0.000000 1.000000 0.000000
vn -0.000000 -0.000000 1.000000
vn -1.000000 -0.000000 -0.000000
vn 0.000000 0.000000 -1.000000
vn 1.000000 -0.000000 0.000000
vn 0.571900 0.820300 0.000000
vn 0.000000 0.820300 -0.571900
vn -0.000000 0.820300 0.571900
vn -0.571900 0.820300 -0.000000
vn 0.503000 -0.864300 0.000000
vn 0.000000 -0.864300 -0.503000
vn -0.000000 -0.864300 0.503000
vn -0.503000 -0.864300 -0.000000
usemtl Material
s off
f 45//1 46//1 21//1 22//1
f 47//2 24//2 23//2 48//2
f 6//3 2//3 50//3 52//3
f 56//3 60//3 34//3 36//3
f 7//2 8//2 28//2 27//2
f 11//4 12//4 19//4 20//4
f 53//5 57//5 13//5 14//5
f 57//5 59//5 16//5 13//5
f 59//5 55//5 15//5 16//5
f 55//5 53//5 14//5 15//5
f 10//5 9//5 14//5 13//5
f 9//5 12//5 15//5 14//5
f 11//5 10//5 13//5 16//5
f 12//5 11//5 16//5 15//5
f 18//5 17//5 20//5 19//5
f 12//2 9//2 18//2 19//2
f 10//1 11//1 20//1 17//1
f 9//6 10//6 17//6 18//6
f 3//4 4//4 59//4 60//4
f 7//4 3//4 60//4 56//4
f 4//4 8//4 55//4 59//4
f 8//4 7//4 56//4 55//4
f 25//4 27//4 28//4 26//4
f 3//3 7//3 27//3 25//3
f 8//5 4//5 26//5 28//5
f 4//1 3//1 25//1 26//1
f 32//4 30//4 42//4 44//4
f 58//3 54//3 35//3 33//3
f 60//3 58//3 33//3 34//3
f 54//3 56//3 36//3 35//3
f 37//3 38//3 34//3 33//3
f 39//3 37//3 33//3 35//3
f 38//3 40//3 36//3 34//3
f 40//3 39//3 35//3 36//3
f 29//3 30//3 38//3 37//3
f 31//3 29//3 37//3 39//3
f 30//3 32//3 40//3 38//3
f 32//3 31//3 39//3 40//3
f 41//3 43//3 44//3 42//3
f 30//1 29//1 41//1 42//1
f 31//2 32//2 44//2 43//2
f 29//6 31//6 43//6 41//6
f 1//6 2//6 58//6 57//6
f 5//6 1//6 57//6 53//6
f 2//6 6//6 54//6 58//6
f 6//6 5//6 53//6 54//6
f 49//6 51//6 52//6 50//6
f 2//1 1//1 49//1 50//1
f 5//2 6//2 52//2 51//2
f 1//5 5//5 51//5 49//5
f 47//7 48//7 54//7 53//7
f 24//8 47//8 53//8 55//8
f 48//9 23//9 56//9 54//9
f 23//10 24//10 55//10 56//10
f 46//11 45//11 57//11 58//11
f 45//12 22//12 59//12 57//12
f 21//13 46//13 58//13 60//13
f 22//14 21//14 60//14 59//14
