# Blender v2.76 (sub 0) OBJ File: ''
# www.blender.org
mtllib forme_video.mtl
o Cube
v 1.000000 2.914994 -0.999999
v -1.000000 2.914994 -1.000000
v -1.000000 2.868294 1.000000
v -1.000000 2.914994 -1.000000
v -0.854801 3.027736 -0.887258
v 0.999999 2.868294 1.000001
v 0.847520 3.027736 -0.887257
v 1.000000 2.914994 -0.999999
v -0.992860 2.876135 1.000000
v -0.854802 3.027736 0.848399
v 0.847519 3.027736 0.848399
v 0.992501 2.876135 1.000001
v 1.000000 1.227428 1.000000
v -1.000000 1.227428 1.000000
v 1.000000 1.215424 -1.000000
v 0.812312 1.027736 0.800308
v 1.000000 1.215424 0.987996
v -1.000000 1.182840 -1.000000
v 0.812312 1.027736 -0.844896
v 0.967415 1.182840 -1.000000
v -1.000000 1.227428 1.000000
v -0.816707 1.027736 0.800308
v -0.816707 1.027736 -0.844897
v -1.000000 1.182840 -1.000000
vn -0.000000 -0.000000 1.000000
vn -0.683300 0.730100 0.009100
vn 0.665300 0.746500 0.009300
vn 1.000000 0.000000 0.000000
vn 0.000000 1.000000 0.000000
vn 0.000000 0.707100 -0.707100
vn 0.000000 -1.000000 -0.000000
vn -0.000000 0.707100 0.707100
vn 0.000000 -0.707100 -0.707100
vn 0.707100 -0.707100 0.000000
vn -0.000000 -0.707100 0.707100
vn 0.000000 0.000000 -1.000000
vn -0.694900 -0.719100 0.008800
vn -1.000000 -0.000000 -0.000000
usemtl Material
s off
f 13//1 6//1 12//1 9//1 3//1 14//1
f 4//2 3//2 9//2 10//2 5//2
f 7//3 11//3 12//3 6//3 8//3
f 15//4 1//4 8//4 6//4 13//4 17//4
f 7//5 5//5 10//5 11//5
f 1//6 2//6 4//6 5//6 7//6 8//6
f 19//7 16//7 22//7 23//7
f 9//8 12//8 11//8 10//8
f 19//9 23//9 24//9 18//9 20//9
f 16//10 19//10 20//10 15//10 17//10
f 13//11 14//11 21//11 22//11 16//11 17//11
f 1//12 15//12 20//12 18//12 2//12
f 23//13 22//13 21//13 24//13
f 21//14 14//14 3//14 4//14 2//14 18//14 24//14
