# Blender v2.76 (sub 0) OBJ File: ''
# www.blender.org
mtllib forme_document.mtl
o Cube
v 1.000000 0.535233 0.553064
v 1.000000 0.535233 1.000000
v 0.761994 3.100962 0.553064
v 0.761993 3.100962 1.000001
v -0.148152 0.535233 1.000000
v -0.219146 0.535233 0.929006
v -0.219146 2.692501 0.929006
v -0.219146 0.535233 0.627296
v -0.144913 0.535233 0.553063
v -0.219146 2.692501 0.627296
v 0.296779 3.100962 0.553064
v 0.189315 3.100962 0.681638
v -0.219146 2.692501 0.627296
v -0.144914 2.659270 0.553064
v 0.189315 3.100962 0.877035
v 0.298425 3.100962 1.000000
v -0.148153 2.654384 1.000000
v -0.219146 2.692501 0.929006
vn -0.707100 0.000000 -0.707100
vn 0.995700 0.092400 0.000000
vn 0.000000 0.000000 -1.000000
vn -1.000000 -0.000000 -0.000000
vn -0.707100 -0.000000 0.707100
vn -0.707100 0.707100 -0.000000
vn 0.000000 -1.000000 0.000000
vn -0.551400 0.589200 -0.590600
vn -0.000000 -0.000000 1.000000
vn -0.539200 0.576500 0.614000
vn 0.000000 1.000000 0.000000
usemtl Material
s off
f 13//1 14//1 9//1 8//1 10//1
f 1//2 3//2 4//2 2//2
f 3//3 1//3 9//3 14//3 11//3
f 6//4 7//4 10//4 8//4
f 7//5 6//5 5//5 17//5 18//5
f 15//6 12//6 13//6 10//6 7//6 18//6
f 1//7 2//7 5//7 6//7 8//7 9//7
f 13//8 12//8 11//8 14//8
f 2//9 4//9 16//9 17//9 5//9
f 15//10 18//10 17//10 16//10
f 3//11 11//11 12//11 15//11 16//11 4//11
